HIERARCHY
ROOT Hips
{
  OFFSET 263.056 91.6644 -274.608
  CHANNELS 6 Xposition Yposition Zposition Zrotation Xrotation Yrotation
  JOINT LeftUpLeg
  {
    OFFSET 8.64259 1.95398 -2.38835
    CHANNELS 3 Zrotation Xrotation Yrotation
    JOINT LeftLeg
    {
      OFFSET 43.7702 0 0
      CHANNELS 3 Zrotation Xrotation Yrotation
      JOINT LeftFoot
      {
        OFFSET 40.6238 0 0
        CHANNELS 3 Zrotation Xrotation Yrotation
        JOINT LeftToeBase
        {
          OFFSET 12.7242 0 0
          CHANNELS 3 Zrotation Xrotation Yrotation
          End Site
          {
            OFFSET 0 0 0
          }
        }
      }
    }
  }
  JOINT RightUpLeg
  {
    OFFSET -8.2249 1.95398 -2.59336
    CHANNELS 3 Zrotation Xrotation Yrotation
    JOINT RightLeg
    {
      OFFSET 43.5653 0 0
      CHANNELS 3 Zrotation Xrotation Yrotation
      JOINT RightFoot
      {
        OFFSET 40.6238 0 0
        CHANNELS 3 Zrotation Xrotation Yrotation
        JOINT RightToeBase
        {
          OFFSET 12.7242 0 0
          CHANNELS 3 Zrotation Xrotation Yrotation
          End Site
          {
            OFFSET 0 0 0
          }
        }
      }
    }
  }
  JOINT Spine
  {
    OFFSET 0.165834 0.87714 6.61349
    CHANNELS 3 Zrotation Xrotation Yrotation
    JOINT Spine1
    {
      OFFSET 7.38963 1.71661e-005 0
      CHANNELS 3 Zrotation Xrotation Yrotation
      JOINT Spine2
      {
        OFFSET 11.9445 1.14441e-005 0
        CHANNELS 3 Zrotation Xrotation Yrotation
        JOINT Spine3
        {
          OFFSET 14.7254 4.19617e-005 0
          CHANNELS 3 Zrotation Xrotation Yrotation
          JOINT Spine4
          {
            OFFSET 10.9679 0 0
            CHANNELS 3 Zrotation Xrotation Yrotation
            JOINT RightShoulder
            {
              OFFSET 2.46616 -1.6653 3.69651
              CHANNELS 3 Zrotation Xrotation Yrotation
              JOINT RightArm
              {
                OFFSET 13.0012 0 0
                CHANNELS 3 Zrotation Xrotation Yrotation
                JOINT RightForeArm
                {
                  OFFSET 28.7848 1.52588e-005 0
                  CHANNELS 3 Zrotation Xrotation Yrotation
                  JOINT RightHand
                  {
                    OFFSET 26.5688 1.52588e-005 0
                    CHANNELS 3 Zrotation Xrotation Yrotation
                    End Site
                    {
                      OFFSET 0 0 0
                    }
                  }
                }
              }
            }
            JOINT LeftShoulder
            {
              OFFSET 2.38034 -1.29275 -3.7523
              CHANNELS 3 Zrotation Xrotation Yrotation
              JOINT LeftArm
              {
                OFFSET 16.3182 6.10352e-005 0
                CHANNELS 3 Zrotation Xrotation Yrotation
                JOINT LeftForeArm
                {
                  OFFSET 27.0901 0 0
                  CHANNELS 3 Zrotation Xrotation Yrotation
                  JOINT LeftHand
                  {
                    OFFSET 24.5451 1.52588e-005 0
                    CHANNELS 3 Zrotation Xrotation Yrotation
                    End Site
                    {
                      OFFSET 0 0 0
                    }
                  }
                }
              }
            }
            JOINT Neck
            {
              OFFSET 5.0226 -0.0266342 0
              CHANNELS 3 Zrotation Xrotation Yrotation
              JOINT Head
              {
                OFFSET 6.69364 2.86102e-005 0
                CHANNELS 3 Zrotation Xrotation Yrotation
                End Site
                {
                  OFFSET 0 0 0
                }
              }
            }
          }
        }
      }
    }
  }
}
MOTION
Frames:	13
Frame Time:	0.0416667
-60.9289 97.5346 19.7168 -100.962 -86.4414 -101.47 -172.551 2.62686 90.1988 -6.32967 7.17146 -0.235605 59.2978 2.39437 7.99109 30.58 2.98756 -14.1475 177.072 4.53084 89.0961 -11.5761 5.14181 -0.369795 63.5836 -1.03059 -0.523276 29.1501 -0.545606 9.49738 -0.0790721 7.20615 -89.927 12.4617 -0.122343 0.159792 0.790697 -0.115199 0.165008 -21.7445 -0.164723 0.115627 -1.73181 -0.164714 0.115627 78.0245 -51.8882 -118.004 24.6887 -9.96483 8.16379 -3.82386 -9.93562 -41.5387 -7.11345 -0.630421 4.6194 -104.68 -42.4775 53.8323 -30.4577 8.17305 7.2669 3.31817 6.50152 -31.8366 11.3047 0.855861 3.50909 13.4036 0.652329 2.80588 -3.44631 -0.0796611 -1.02762 
-60.7351 97.4938 19.9712 -87.2461 -86.6254 -86.9474 -172.47 3.72468 90.7584 -6.9284 7.56852 -0.161099 59.9255 3.08425 8.86259 30.392 2.89587 -15.285 177.434 4.78693 89.7488 -10.8137 5.09837 -0.2115 63.2807 -1.1419 -0.60333 29.0407 -0.537584 9.0964 -0.071497 7.11525 -90.016 12.6434 -0.14961 -0.0145434 0.972466 -0.150105 -0.00794922 -21.5628 -0.138319 -0.058832 -1.55011 -0.138321 -0.0588327 78.163 -51.9374 -117.785 24.5214 -10.454 7.46037 -3.03352 -11.4218 -39.5367 -8.30011 -0.676677 3.864 -104.787 -42.4727 53.6677 -30.2373 8.31773 7.06724 3.25479 6.54481 -31.7547 11.5019 0.815065 3.06263 12.8336 0.693284 2.39671 -3.05164 0.0737381 -0.871118 
-60.6452 97.4857 20.1065 -82.3989 -86.5794 -81.6577 -172.356 4.5057 91.1486 -7.93472 7.98283 -0.184286 60.296 3.20623 9.38312 30.918 3.43424 -16.9532 177.597 4.53187 90.1112 -9.91596 5.36587 -0.103448 62.999 -1.21946 -0.652315 29.2429 -0.518603 9.21545 -0.076262 7.09155 -90.0877 12.6906 -0.193295 -0.152475 1.01965 -0.199821 -0.143828 -21.5155 -0.138538 -0.203526 -1.50286 -0.138532 -0.203521 77.9587 -51.9839 -118.059 24.0676 -10.6215 7.2381 -2.39394 -11.4423 -38.8325 -8.99462 -0.701541 3.55184 -104.802 -42.652 53.7334 -30.1132 8.3195 6.86057 3.16854 6.3509 -31.7865 11.4412 0.834272 3.25306 12.7346 0.802084 2.6574 -2.93411 0.114963 -1.03921 
-60.6531 97.5128 20.0971 -84.6048 -86.4674 -83.8647 -172.329 4.31902 91.1441 -7.82503 7.80276 -0.180753 60.3034 3.23122 9.22933 30.4754 3.03309 -16.3859 177.671 4.5992 90.1473 -10.2345 5.23755 -0.226369 63.0417 -1.19076 -0.632662 28.9881 -0.559899 9.3255 -0.0730876 7.11149 -90.1019 12.6507 -0.19378 -0.180925 0.979762 -0.201567 -0.172228 -21.5554 -0.130451 -0.230801 -1.5427 -0.13045 -0.230806 77.9328 -51.972 -118.101 24.0294 -10.4842 7.24189 -2.19979 -11.3095 -38.7125 -9.07702 -0.691125 3.33606 -104.91 -42.6839 53.5867 -30.045 8.39015 6.99523 3.30329 6.50778 -32.2225 11.6951 0.868501 3.39069 12.4268 0.928351 2.6509 -2.47961 0.242985 -1.0587 
-60.6704 97.5142 20.1409 -83.7899 -86.358 -82.9958 -172.326 4.36726 91.177 -7.87667 7.75674 -0.141578 60.3731 3.23739 9.15831 30.3142 2.8557 -15.7189 177.687 4.74728 90.1935 -10.4361 5.08454 -0.207924 62.8544 -1.10524 -0.579935 29.2835 -0.497853 9.01898 -0.0672729 7.1178 -90.1193 12.638 -0.19053 -0.215996 0.967094 -0.199843 -0.207411 -21.568 -0.116806 -0.263269 -1.55532 -0.1168 -0.263271 78.4026 -51.8595 -117.472 24.3039 -10.2062 6.90802 -2.5255 -11.7363 -38.5966 -8.97436 -0.722385 3.86326 -105.066 -42.7237 53.3719 -29.8516 8.26688 7.08779 3.52944 6.7198 -32.4459 11.2919 0.86528 3.595 12.3132 0.880131 2.37011 -2.62793 0.274086 -0.21811 
-60.7036 97.5063 20.2022 -83.6542 -86.1853 -82.8671 -172.234 4.3745 91.224 -7.95263 7.53393 -0.229696 60.6451 3.3749 8.97279 29.9854 2.57311 -15.6778 177.685 4.45318 90.2376 -9.80841 5.49756 -0.177376 63.0237 -1.23296 -0.654562 28.8006 -0.635374 10.0945 -0.0831425 7.1143 -90.1196 12.6424 -0.222179 -0.212919 0.971418 -0.231334 -0.202943 -21.5637 -0.147922 -0.269849 -1.55103 -0.147919 -0.269854 77.9851 -51.9712 -118.027 24.2893 -10.0321 7.19052 -2.38925 -11.3702 -38.8363 -8.45243 -0.689857 3.93127 -104.737 -42.7478 53.8787 -29.9356 8.30819 7.00227 3.45779 6.61367 -32.3663 11.217 0.883119 3.7848 12.1557 1.12286 2.61602 -2.6904 0.452286 -0.511457 
-60.7271 97.4995 20.2525 -82.456 -86.1632 -81.7987 -172.321 4.20586 91.0984 -7.5237 7.51073 -0.188503 60.239 3.27703 9.196 30.9728 3.45211 -16.4032 177.607 4.9031 90.0815 -10.625 4.80612 -0.173047 62.9014 -1.08344 -0.56688 29.7465 -0.416046 8.7514 -0.0893136 7.11038 -90.1025 12.6547 -0.226258 -0.178154 0.983811 -0.233876 -0.168035 -21.5513 -0.162259 -0.23792 -1.53869 -0.162255 -0.237924 78.0454 -52.2694 -117.817 24.1502 -10.2021 7.08553 -2.61338 -11.6979 -38.5526 -8.95013 -0.716275 3.79735 -104.795 -42.6489 53.7431 -29.8075 8.38743 7.14772 3.25854 6.4444 -32.0891 11.0275 0.803023 3.22617 11.9576 1.17636 2.49691 -2.70501 0.539712 -0.241212 
-60.7846 97.4879 20.2708 -83.7929 -86.0766 -83.21 -172.251 4.10698 91.082 -7.6074 7.27511 -0.246489 60.6554 3.5737 8.87606 29.6299 2.29216 -15.9675 177.583 4.69401 90.0882 -10.3375 5.57459 -0.156891 63.2537 -1.24647 -0.661403 28.9789 -0.634654 10.4776 -0.0881549 7.11567 -90.0954 12.6422 -0.220555 -0.164707 0.971227 -0.227592 -0.154854 -21.5639 -0.160864 -0.223381 -1.55129 -0.160862 -0.223389 78.0409 -52.1757 -117.862 24.3834 -10.3444 7.29028 -2.78997 -11.7742 -38.5155 -9.05081 -0.721302 3.762 -104.733 -42.5675 53.7975 -29.9136 8.19101 7.3663 3.35237 6.38465 -32.1604 10.8819 0.773393 3.05422 11.7151 1.17645 2.51699 -2.52854 0.542237 0.0628618 
-60.7999 97.4648 20.3338 -83.8556 -86.0153 -83.3205 -172.248 4.19709 91.0802 -7.77675 7.47582 -0.304272 60.285 3.27891 9.27086 30.428 3.00873 -16.64 177.54 4.6759 90.0602 -10.3868 5.53935 -0.130991 63.4092 -1.34246 -0.718837 29.0132 -0.630721 10.553 -0.0846285 7.12058 -90.0989 12.6325 -0.215237 -0.172404 0.961595 -0.222606 -0.162767 -21.5736 -0.153475 -0.229115 -1.5609 -0.153468 -0.229117 77.7169 -52.3986 -118.234 24.0773 -10.3356 7.42608 -2.39414 -11.408 -38.325 -9.25998 -0.714676 3.49464 -104.856 -42.6172 53.635 -29.8671 8.0076 7.54674 3.4199 6.34904 -32.1711 10.7655 0.783131 3.20601 11.755 1.14837 2.7156 -2.81831 0.465636 -0.0156959 
-60.8585 97.4767 20.3761 -85.0924 -86.0854 -84.6039 -172.245 4.02253 91.0639 -7.71221 7.22729 -0.272543 60.509 3.54957 9.0249 30.516 3.07637 -16.5374 177.557 4.69684 90.0635 -10.6376 5.61118 -0.170114 63.3723 -1.27907 -0.679423 29.1987 -0.585965 10.2851 -0.105846 7.14585 -90.0874 12.5821 -0.251894 -0.14532 0.911123 -0.258047 -0.134094 -21.6241 -0.196574 -0.214305 -1.61146 -0.196579 -0.214313 77.7715 -52.1222 -118.27 24.4869 -10.4197 7.40756 -2.96104 -12.1807 -38.4843 -9.3083 -0.742814 3.80414 -104.451 -42.4774 54.18 -29.9969 8.11262 7.48793 3.23553 6.0663 -32.1622 10.872 0.758198 2.93044 11.8628 1.17973 2.67055 -3.08485 0.504394 -0.0724979 
-60.8706 97.4477 20.4415 -84.8086 -86.1995 -84.2507 -172.298 4.14414 91.0808 -8.01922 7.41612 -0.199542 60.7279 3.66582 9.03813 29.842 2.49219 -16.2637 177.556 4.54203 90.1284 -10.4541 5.74827 -0.12279 63.5138 -1.39321 -0.749778 29.0827 -0.633707 10.7368 -0.0984883 7.15302 -90.1023 12.5676 -0.244362 -0.175905 0.896686 -0.25186 -0.164984 -21.6385 -0.180197 -0.241212 -1.62583 -0.180198 -0.241213 78.0664 -52.1142 -117.851 24.5518 -10.3244 7.33706 -2.90702 -12.1442 -38.4328 -9.45741 -0.751346 3.78636 -104.604 -42.5006 53.959 -30.0068 7.93245 7.41314 3.32916 6.17137 -31.9459 10.8542 0.745324 2.82972 11.7718 1.10499 2.56961 -3.04423 0.458454 0.0969835 
-60.9198 97.4464 20.453 -83.6437 -86.267 -83.2248 -172.396 4.0512 90.946 -7.74126 7.20696 -0.131936 60.6635 3.68216 8.88163 29.6222 2.31978 -16.4387 177.534 4.81461 90.0274 -10.8725 5.54155 -0.151061 63.5343 -1.33572 -0.716902 29.3132 -0.563127 10.17 -0.103535 7.14382 -90.0846 12.5861 -0.245987 -0.140396 0.91515 -0.251927 -0.12945 -21.6201 -0.192429 -0.20784 -1.60743 -0.192423 -0.207838 77.9358 -52.2084 -117.999 24.5273 -10.2632 7.51822 -2.95279 -12.0498 -38.5117 -8.98568 -0.716057 3.74053 -104.53 -42.4611 54.0512 -30.0879 7.99597 7.41989 3.23901 6.09638 -31.8619 10.679 0.758872 3.04521 11.5857 0.957934 2.38957 -3.00687 0.362657 0.158987 
-60.9807 97.4722 20.4979 -84.0273 -86.4079 -83.5043 -172.412 4.20741 91.0541 -8.11282 7.48073 -0.0667676 60.6506 3.54518 8.94909 30.7322 3.19017 -15.3533 177.647 4.51213 90.1943 -10.4395 5.98655 -0.207512 63.5817 -1.41918 -0.765157 28.8801 -0.661806 10.7185 -0.118904 7.15215 -90.1071 12.5694 -0.287184 -0.180465 0.89842 -0.294845 -0.167657 -21.6368 -0.219678 -0.258436 -1.62415 -0.21967 -0.258433 78.01 -52.1284 -117.926 24.4191 -10.3328 7.43745 -3.01803 -12.1756 -38.5338 -9.89074 -0.829621 4.43217 -104.331 -42.5245 54.3846 -30.2591 8.07469 7.26559 3.29345 6.32131 -31.8086 10.6526 0.74059 2.90085 11.5155 0.884954 2.74721 -3.04219 0.206569 -0.293392 
